<?xml version="1.0" encoding="UTF-8"?>
<svg version="1.1" xmlns="http://www.w3.org/2000/svg" width="225" height="225">
<path d="M0 0 C6.16669359 5.23430429 10.53678944 9.39714976 11.37109375 17.6875 C12.04217573 40.78029678 3.78169623 62.28579667 -6.75 82.5 C-7.11448242 83.2002832 -7.47896484 83.90056641 -7.85449219 84.62207031 C-9.83916472 88.28817631 -11.86862584 91.23536335 -15 94 C-15.99 93.01 -15.99 93.01 -17 92 C-16.67738147 89.17708785 -15.89701068 86.69858886 -14.97851562 84.01049805 C-13.57380359 79.0733342 -13.63719428 74.12076019 -13.59375 69.01953125 C-13.57664978 67.44566902 -13.57664978 67.44566902 -13.5592041 65.8400116 C-13.54037162 63.62539663 -13.52726306 61.41072647 -13.51953125 59.19604492 C-13.50015855 55.83996664 -13.43807428 52.4863617 -13.375 49.13085938 C-13.15563518 33.12859317 -13.15563518 33.12859317 -20 19 C-20.59578857 18.15268311 -21.19157715 17.30536621 -21.80541992 16.43237305 C-23.43972515 14.18443938 -25.17120488 12.09178557 -27 10 C-27.52078125 9.38511719 -28.0415625 8.77023438 -28.578125 8.13671875 C-33.52775646 2.71855421 -39.63879271 -0.47529596 -46 -4 C-46.99 -4.66 -47.98 -5.32 -49 -6 C-33.00201367 -11.85292183 -13.98307797 -9.92970108 0 0 Z " fill="#000000" transform="translate(183,34)"/>
<path d="M0 0 C0.72002197 0.00016113 1.44004395 0.00032227 2.18188477 0.00048828 C9.79860423 0.15712609 22.47695343 0.78945343 28.0625 6.375 C27.54300781 7.01824219 27.02351563 7.66148438 26.48828125 8.32421875 C14.39897681 23.98891821 12.74940211 40.43367431 12.26464844 59.54492188 C12.18764607 62.36964161 12.07863326 65.19201775 11.96875 68.015625 C11.33768373 82.88886781 11.33768373 82.88886781 17.43310547 96.12963867 C18.88831808 97.7014582 18.88831808 97.7014582 21.0625 99.375 C19.73577315 102.25788172 18.25005068 104.51962051 16.1640625 106.90625 C15.60203125 107.55207031 15.04 108.19789063 14.4609375 108.86328125 C13.87570313 109.52714844 13.29046875 110.19101563 12.6875 110.875 C12.11 111.53886719 11.5325 112.20273438 10.9375 112.88671875 C2.72683536 122.2783694 2.72683536 122.2783694 -1.375 122.875 C-5.71443016 122.26595717 -6.95857194 121.58307638 -9.9375 118.375 C-26.61040025 95.05116139 -37.21138058 55.37817649 -33.49609375 27.00390625 C-31.92427503 18.45281699 -28.70932634 11.42150874 -21.984375 5.71875 C-15.33363989 1.2151026 -7.92353111 -0.01697697 0 0 Z " fill="#000000" transform="translate(63.9375,27.625)"/>
<path d="M0 0 C6.85651787 6.60610592 13.10439795 14.81596926 16 24 C15.625 26.3125 15.625 26.3125 15 28 C14.35933594 27.96519531 13.71867187 27.93039063 13.05859375 27.89453125 C7.18113512 27.71058694 3.13965788 28.06305264 -2 31 C-5.04673333 34.19010902 -5.45691385 36.58041276 -5.5 40.9375 C-5.28499445 48.39653876 -3.17036671 54.32908849 0 61 C0.37543945 61.79486816 0.75087891 62.58973633 1.13769531 63.40869141 C2.40819004 66.07274448 3.69834108 68.72603958 5 71.375 C5.41491699 72.2194165 5.82983398 73.06383301 6.25732422 73.93383789 C8.2177864 77.82202369 10.23338484 81.46206403 12.8125 84.9765625 C15 88 15 88 15 90 C13.01310269 91.35278115 11.01254782 92.68568305 9 94 C7.48930678 97.02138644 7.46316008 100.25658301 7.1328125 103.578125 C6.96764624 105.14845837 6.8022745 106.71877014 6.63671875 108.2890625 C6.38168234 110.75004244 6.12891679 113.21120737 5.88037109 115.67285156 C2.79681038 146.01410032 2.79681038 146.01410032 -3 153 C-10.23255965 157.60034262 -17.41247267 160.03229858 -26 159 C-31.54115445 156.4425441 -34.85376514 152.6338665 -37 147 C-38.85453515 138.32198495 -39.01859032 129.47376706 -39.23046875 120.62890625 C-39.2581282 119.52329094 -39.2581282 119.52329094 -39.28634644 118.39533997 C-39.37686527 114.6547823 -39.44674212 110.91555387 -39.48339844 107.17407227 C-39.50818122 105.77489731 -39.53323479 104.37572713 -39.55859375 102.9765625 C-39.57204834 101.72955566 -39.58550293 100.48254883 -39.59936523 99.19775391 C-40.02765198 95.77928969 -40.51383304 94.35178919 -43 92 C-46.60465748 91.18685089 -46.60465748 91.18685089 -50 91 C-49.4876233 85.22935736 -48.3103993 80.60353237 -46 75.3125 C-39.7675278 60.77496461 -41.06374672 45.80875985 -46 31 C-52.95054739 27.77901463 -58.86091306 28.41548627 -65.8125 30.9375 C-67.54408044 31.61889766 -69.27361607 32.30554184 -71 33 C-72.485 33.495 -72.485 33.495 -74 34 C-73.7421034 20.09702866 -70.53803365 6.54515522 -61 -4 C-43.24914879 -20.4554242 -16.95152702 -14.88295716 0 0 Z " fill="#000000" transform="translate(152,41)"/>
<path d="M0 0 C1.63001953 0.01353516 1.63001953 0.01353516 3.29296875 0.02734375 C4.12441406 0.03894531 4.95585937 0.05054687 5.8125 0.0625 C6.8125 2.0625 6.8125 2.0625 6.3671875 5.6171875 C5.80158105 10.13300382 5.76067524 14.58978163 5.8203125 19.1328125 C5.82826843 19.862724 5.83622437 20.5926355 5.84442139 21.34466553 C5.88056287 24.39750422 5.92272186 27.44999318 5.98388672 30.50244141 C6.02646445 32.75427692 6.04971404 35.00568271 6.0703125 37.2578125 C6.08893341 37.93715851 6.10755432 38.61650452 6.1267395 39.31643677 C6.15337715 44.33759552 4.98780051 47.64676164 2.8125 52.0625 C-0.88040808 49.60056128 -2.12628763 46.74857927 -4 42.875 C-4.34748291 42.16537109 -4.69496582 41.45574219 -5.05297852 40.72460938 C-16.32475494 17.36909557 -16.32475494 17.36909557 -14.5 7.25 C-13.1228136 3.90540446 -12.31292729 2.76727852 -9.1875 1.0625 C-5.90230525 -0.03256492 -3.45086585 -0.03710608 0 0 Z M-9.1875 6.0625 C-8.8575 7.0525 -8.5275 8.0425 -8.1875 9.0625 C-5.84216049 9.83206136 -5.84216049 9.83206136 -3.1875 10.0625 C-1.31109581 8.85331118 -1.31109581 8.85331118 -0.1875 7.0625 C-0.1875 6.4025 -0.1875 5.7425 -0.1875 5.0625 C-3.80694899 3.72196334 -5.76117167 4.44451162 -9.1875 6.0625 Z " fill="#000000" transform="translate(162.1875,69.9375)"/>
<path d="M0 0 C5.31937924 4.86343245 5.97590188 12.77746471 6.42578125 19.62890625 C6.59989743 28.85706398 5.52164483 36.28648413 2.1875 45 C1.73246094 46.21945313 1.27742188 47.43890625 0.80859375 48.6953125 C-0.37143823 51.8084453 -1.57781222 54.90822034 -2.8125 58 C-8.7357981 58.49360817 -12.94639487 57.5237313 -17.8125 54 C-23.19486738 48.52257977 -25.67964658 42.84627435 -25.94775391 35.08422852 C-25.90617058 33.6820732 -25.85282558 32.28022812 -25.7890625 30.87890625 C-25.76403656 30.13414536 -25.73901062 29.38938446 -25.71322632 28.62205505 C-25.63175774 26.26835525 -25.53489248 23.91558914 -25.4375 21.5625 C-25.37918534 19.95641703 -25.32188381 18.35029693 -25.265625 16.74414062 C-25.12628968 12.82890053 -24.9731535 8.91442094 -24.8125 5 C-23.23175436 4.18247697 -21.64778777 3.37118003 -20.0625 2.5625 C-19.18078125 2.11003906 -18.2990625 1.65757813 -17.390625 1.19140625 C-11.77080552 -1.40563154 -5.88607787 -2.09282769 0 0 Z M-7.8125 4 C-8.1425 5.32 -8.4725 6.64 -8.8125 8 C-6.03135944 10.33391203 -6.03135944 10.33391203 -3.125 9.625 C-2.361875 9.41875 -1.59875 9.2125 -0.8125 9 C-0.4825 8.01 -0.1525 7.02 0.1875 6 C-3.04041555 3.8480563 -4.09650809 3.79913557 -7.8125 4 Z " fill="#000000" transform="translate(102.8125,72)"/>
<path d="M0 0 C0.639375 0.185625 1.27875 0.37125 1.9375 0.5625 C8.7439846 2.00629976 16.15983952 0.70413417 23 0 C21.63408942 3.25877144 20.32304799 4.7914639 17.3125 6.625 C16.34763672 7.23214844 16.34763672 7.23214844 15.36328125 7.8515625 C9.6910598 10.60798086 4.44218911 11.25609579 -1.8125 11.1875 C-3.11832031 11.18105469 -4.42414063 11.17460937 -5.76953125 11.16796875 C-9 11 -9 11 -11 10 C-11.47945205 3.76712329 -11.47945205 3.76712329 -9.4375 0.5 C-5.9722378 -1.63246905 -3.87926626 -0.90054395 0 0 Z " fill="#000000" transform="translate(172,134)"/>
<path d="M0 0 C4.31578947 2.31578947 4.31578947 2.31578947 6 4 C6.5625 7.125 6.5625 7.125 6 11 C2.33725869 15.53525537 -2.21567571 18.93757309 -8 20 C-14.42118666 20.64811977 -19.10956086 19.57037344 -25 17 C-24.505 15.515 -24.505 15.515 -24 14 C-21.61907343 13.15984761 -19.30640539 12.4645679 -16.875 11.8125 C-10.71925366 9.99835809 -7.03874165 8.03309858 -3.19921875 2.671875 C-2 1 -2 1 0 0 Z " fill="#000000" transform="translate(105,133)"/>
</svg>
