<?xml version="1.0" encoding="UTF-8"?>
<svg version="1.1" xmlns="http://www.w3.org/2000/svg" width="222" height="227">
<path d="M0 0 C3.3573756 3.25678673 4.79242222 4.86576206 5.63923645 9.4928894 C5.6492292 11.41815964 5.6492292 11.41815964 5.65942383 13.38232422 C5.66990753 14.09521103 5.68039124 14.80809784 5.69119263 15.54258728 C5.71981292 17.8804039 5.71366726 20.21672802 5.70703125 22.5546875 C5.72015434 24.18280888 5.73546045 25.810914 5.75285339 27.43899536 C5.79264547 31.71008928 5.80289004 35.98075675 5.80688477 40.25201416 C5.81622722 44.61605722 5.85364767 48.97985086 5.88867188 53.34375 C5.95318865 61.895838 5.98647707 70.44768002 6 79 C7.75860352 79.00546844 7.75860352 79.00546844 9.55273438 79.01104736 C20.61694857 79.04803439 31.6808854 79.10584789 42.74488831 79.18390274 C48.43263887 79.22336365 54.12023494 79.25555909 59.80810547 79.27099609 C65.30017216 79.28617156 70.79181406 79.32063357 76.28369141 79.36830902 C78.37593894 79.38311352 80.46824713 79.39104048 82.56054688 79.39188385 C85.49785322 79.394258 88.43398988 79.42137444 91.37109375 79.45410156 C92.66043068 79.44655602 92.66043068 79.44655602 93.97581482 79.43885803 C100.68846573 79.55410795 106.01403857 81.3143345 111.05859375 85.8515625 C111.51363281 86.43679687 111.96867188 87.02203125 112.4375 87.625 C112.91058594 88.21539062 113.38367188 88.80578125 113.87109375 89.4140625 C116.25165159 92.75837559 116.16443653 95.23949148 116.1875 99.3125 C116.20167969 100.44300781 116.21585938 101.57351562 116.23046875 102.73828125 C115.78425274 109.05337222 113.47924137 111.6897866 109 116 C107.23761278 118.08967809 105.58679753 120.25798008 103.9375 122.4375 C103.51662109 122.98470703 103.09574219 123.53191406 102.66210938 124.09570312 C100.6481232 126.73418114 98.75534588 129.37556961 96.94140625 132.16015625 C95.13755367 134.7987897 93.29202249 136.79286724 91 139 C82.24122541 149.23302378 74.05739409 159.99186227 65.875 170.6875 C62.89865601 174.57661265 59.8695588 178.41179783 56.75 182.1875 C52.83739563 186.92525819 49.06834176 191.76231445 45.3125 196.625 C40.40812359 202.95764025 35.44301403 209.23485596 30.375 215.4375 C29.79532471 216.15309082 29.21564941 216.86868164 28.6184082 217.60595703 C23.04285942 224.38465488 23.04285942 224.38465488 20 226 C17.640625 226.07421875 17.640625 226.07421875 15.25 225.6875 C14.45078125 225.56761719 13.6515625 225.44773438 12.828125 225.32421875 C11.92320313 225.16373047 11.92320313 225.16373047 11 225 C11 224.34 11 223.68 11 223 C10.34 223 9.68 223 9 223 C6.50871409 219.26307114 6.65056906 216.26810617 6.5859375 211.93359375 C6.56657135 211.10843765 6.5472052 210.28328156 6.5272522 209.43312073 C6.487602 207.66359861 6.45262174 205.89396679 6.421875 204.12426758 C6.37704168 201.55452454 6.31900657 198.98541425 6.2578125 196.41601562 C5.8821843 179.27995423 5.9631131 162.13907372 6 145 C4.82759766 145.00888245 3.65519531 145.01776489 2.44726562 145.0269165 C-8.61672904 145.10810249 -19.68066304 145.16801358 -30.74488831 145.20724869 C-36.43275393 145.22809819 -42.12037854 145.25636804 -47.80810547 145.30175781 C-53.29999146 145.34530904 -58.79164602 145.36915694 -64.28369141 145.37950897 C-66.3760136 145.38688365 -68.46832354 145.40128468 -70.56054688 145.42292023 C-73.49767143 145.45207715 -76.4338471 145.45595082 -79.37109375 145.45410156 C-80.2306517 145.46848267 -81.09020966 145.48286377 -81.97581482 145.49768066 C-88.71066579 145.45198065 -93.96420652 143.67864131 -99.05859375 139.18359375 C-99.51363281 138.60738281 -99.96867187 138.03117188 -100.4375 137.4375 C-100.91058594 136.85871094 -101.38367188 136.27992188 -101.87109375 135.68359375 C-105.2786827 130.60168774 -104.73207542 123.82207147 -104 118 C-102.45920484 114.84085288 -100.37571377 112.56018096 -98 110 C-97.06600898 108.67874441 -96.14814607 107.34587859 -95.25 106 C-94.5075 105.01 -93.765 104.02 -93 103 C-92.34 103 -91.68 103 -91 103 C-90.34 101.35 -89.68 99.7 -89 98 C-88.34 98 -87.68 98 -87 98 C-86.72647705 97.41790771 -86.4529541 96.83581543 -86.17114258 96.23608398 C-82.75560513 89.71473574 -77.48424383 84.08964499 -72.8125 78.4375 C-67.76642603 72.30245566 -62.98354507 66.02886701 -58.42700195 59.52124023 C-57.33067363 57.98036987 -56.17117983 56.48477443 -55 55 C-54.34 55 -53.68 55 -53 55 C-52.75121094 54.45214844 -52.50242188 53.90429688 -52.24609375 53.33984375 C-47.91938747 45.21540156 -41.2953751 38.09301843 -35.30566406 31.14770508 C-31.61070972 26.82132637 -28.19206284 22.32545741 -24.8125 17.75 C-9.65538588 -2.71028376 -9.65538588 -2.71028376 0 0 Z " fill="#000000" transform="translate(105,1)"/>
</svg>
